HIERARCHY
ROOT Hips
{
    OFFSET 0.000000 0.000000 0.000000
    CHANNELS 6 Xposition Yposition Zposition Zrotation Xrotation Yrotation
    JOINT Spine
    {
        OFFSET -0.000000 7.246840 0.000000
        CHANNELS 3 Zrotation Xrotation Yrotation
        JOINT Spine1
        {
            OFFSET -0.000000 20.289354 0.000000
            CHANNELS 3 Zrotation Xrotation Yrotation
            JOINT Neck
            {
                OFFSET -0.000000 20.206032 1.836912
                CHANNELS 3 Zrotation Xrotation Yrotation
                JOINT Head
                {
                    OFFSET -0.000000 12.372654 -1.767522
                    CHANNELS 3 Zrotation Xrotation Yrotation
                    End Site
                    {
                        OFFSET -0.000000 22.094025 0.000000
                    }
                }
            }
            JOINT LeftShoulder
            {
                OFFSET 3.465871 17.201674 -0.568930
                CHANNELS 3 Zrotation Xrotation Yrotation
                JOINT LeftArm
                {
                    OFFSET 14.070313 0.000000 0.000000
                    CHANNELS 3 Zrotation Xrotation Yrotation
                    JOINT LeftForeArm
                    {
                        OFFSET 26.549477 0.000000 0.000000
                        CHANNELS 3 Zrotation Xrotation Yrotation
                        JOINT LeftHand
                        {
                            OFFSET 18.880413 0.000000 0.000000
                            CHANNELS 3 Zrotation Xrotation Yrotation
                            End Site
                            {
                                OFFSET 13.256415 0.000000 0.000000
                            }
                        }
                    }
                }
            }
            JOINT RightShoulder
            {
                OFFSET -3.526370 17.201674 -0.568930
                CHANNELS 3 Zrotation Xrotation Yrotation
                JOINT RightArm
                {
                    OFFSET -14.070313 0.000000 0.000000
                    CHANNELS 3 Zrotation Xrotation Yrotation
                    JOINT RightForeArm
                    {
                        OFFSET -26.549477 0.000000 0.000000
                        CHANNELS 3 Zrotation Xrotation Yrotation
                        JOINT RightHand
                        {
                            OFFSET -18.880413 0.000000 0.000000
                            CHANNELS 3 Zrotation Xrotation Yrotation
                            End Site
                            {
                                OFFSET -13.256415 0.000000 0.000000
                            }
                        }
                    }
                }
            }
        }
    }
    JOINT LeftUpLeg
    {
        OFFSET 8.837609 0.000000 0.000000
        CHANNELS 3 Zrotation Xrotation Yrotation
        JOINT LeftLeg
        {
            OFFSET -0.000000 -41.345005 0.000000
            CHANNELS 3 Zrotation Xrotation Yrotation
            JOINT LeftFoot
            {
                OFFSET -0.000000 -35.500874 0.000000
                CHANNELS 3 Zrotation Xrotation Yrotation
                JOINT LeftToeBase
                {
                    OFFSET -0.000000 -5.744446 13.256415
                    CHANNELS 3 Zrotation Xrotation Yrotation
                    End Site
                    {
                        OFFSET -0.000000 0.000000 3.535044
                    }
                }
            }
        }
    }
    JOINT RightUpLeg
    {
        OFFSET -8.837609 0.000000 0.000000
        CHANNELS 3 Zrotation Xrotation Yrotation
        JOINT RightLeg
        {
            OFFSET -0.000000 -41.345005 0.000000
            CHANNELS 3 Zrotation Xrotation Yrotation
            JOINT RightFoot
            {
                OFFSET -0.000000 -35.500874 0.000000
                CHANNELS 3 Zrotation Xrotation Yrotation
                JOINT RightToeBase
                {
                    OFFSET -0.000000 -5.744446 13.256415
                    CHANNELS 3 Zrotation Xrotation Yrotation
                    End Site
                    {
                        OFFSET -0.000000 0.000000 3.535044
                    }
                }
            }
        }
    }
}
MOTION
Frames:    14
Frame Time:    0.010000
2.271333    82.441109    -68.608513    4.420011    2.312782    -1.759508    -3.847976    -14.017750    0.102402    -1.651269    2.982797    0.618705    2.915293    34.753105    -2.201271    0.261198    -15.128561    -1.678871    19.074282    1.973256    6.783103    -36.092865    3.856323    -8.584766    5.787131    -7.817334    -0.398442    -28.592810    -5.593933    -8.688921    -15.890717    1.641461    11.458955    19.368412    0.495362    7.477413    -1.259851    -6.956623    -0.115705    6.786998    -6.053447    15.260472    -6.335270    3.038620    -2.565716    -1.049307    3.629597    -3.896699    7.914578    -5.429120    -0.353352    -0.561324    -3.731462    0.804197    -6.981286    6.822379    3.141660    8.421243    -11.370646    3.383348    -5.680123    -1.031806    -7.351059    -1.252036    1.358400    2.212909    
2.264873    82.442322    -68.620323    4.425954    2.314247    -1.749800    -3.821492    -13.998912    0.108168    -1.721824    2.961523    0.622024    2.964139    34.764835    -2.214572    0.247900    -15.130951    -1.686921    19.107571    1.984730    6.774480    -36.105091    3.865592    -8.579737    5.801753    -7.785517    -0.412924    -28.638552    -5.565040    -8.659408    -15.856933    1.652169    11.446174    19.357676    0.487840    7.483105    -1.261661    -6.949734    -0.114224    6.813682    -6.042165    15.273795    -6.338267    3.027835    -2.566232    -1.049634    3.634233    -3.870161    7.919119    -5.437689    -0.383338    -0.555771    -3.717737    0.796172    -6.982994    6.817997    3.163525    8.413531    -11.381494    3.393749    -5.686403    -1.010873    -7.355742    -1.219782    1.357631    2.155929    
2.258736    82.442787    -68.632797    4.432495    2.318240    -1.744789    -3.844263    -13.998655    0.101980    -1.690344    2.972087    0.618074    2.907764    34.757141    -2.202586    0.290366    -15.121780    -1.673676    19.060570    1.996839    6.784369    -36.085167    3.867200    -8.596698    5.786674    -7.778552    -0.401445    -28.659039    -5.552440    -8.677355    -15.876144    1.623098    11.452769    19.351950    0.486766    7.464487    -1.261505    -6.939642    -0.102416    6.814212    -6.032156    15.268853    -6.335586    3.022516    -2.569561    -1.075141    3.626376    -3.788107    8.188963    -5.482310    -0.436223    -0.507571    -3.598545    0.726568    -6.981870    6.805979    3.149899    8.417638    -11.376672    3.388654    -5.674275    -1.032005    -7.397009    -1.279197    1.404660    2.259809    
2.253772    82.442787    -68.645584    4.442813    2.318729    -1.737284    -3.842801    -13.987801    0.101931    -1.721734    2.970922    0.618138    2.959896    34.761986    -2.215451    0.241747    -15.131649    -1.690297    19.070850    1.996069    6.783973    -36.090530    3.909307    -8.594958    5.776787    -7.807816    -0.407966    -28.633554    -5.579740    -8.692468    -15.861809    1.624439    11.450904    19.339951    0.485158    7.461184    -1.260949    -6.952647    -0.085822    6.814742    -6.046069    15.250010    -6.344812    3.015656    -2.582430    -1.050293    3.611140    -3.832879    8.163451    -5.473951    -0.392682    -0.491885    -3.593258    0.704091    -6.988282    6.799523    3.152593    8.410072    -11.389270    3.380593    -5.678041    -1.014112    -7.365080    -1.240870    1.372409    2.192853    
2.245638    82.444473    -68.657921    4.442702    2.328264    -1.730873    -3.842571    -13.989356    0.101992    -1.723411    2.966453    0.618309    2.916632    34.772850    -2.205188    0.295979    -15.130679    -1.672663    19.045359    2.007136    6.774423    -36.079048    3.930775    -8.595557    5.768555    -7.832359    -0.396007    -28.636322    -5.592030    -8.742437    -15.876179    1.618766    11.455339    19.349682    0.482298    7.456772    -1.268039    -6.969030    -0.088563    6.821102    -6.062456    15.236868    -6.334042    2.997127    -2.576547    -1.080461    3.616813    -3.768386    8.179183    -5.479142    -0.461137    -0.484514    -3.536229    0.693287    -6.983150    6.782945    3.149155    8.420997    -11.384993    3.364549    -5.698445    -1.001765    -7.375662    -1.283168    1.389197    2.267190    
2.238569    82.443779    -68.668755    4.455641    2.321505    -1.719369    -3.855582    -13.973475    0.098204    -1.739675    2.962360    0.615918    2.901314    34.778816    -2.200167    0.336670    -15.125137    -1.659096    19.048510    2.009866    6.774369    -36.096413    3.958404    -8.598769    5.778670    -7.874658    -0.388003    -28.613695    -5.631098    -8.764464    -15.861003    1.636490    11.456184    19.330683    0.468508    7.464796    -1.263977    -6.988675    -0.094842    6.818810    -6.081552    15.252616    -6.336528    2.993333    -2.578661    -1.078342    3.621400    -3.824215    8.173999    -5.476626    -0.401163    -0.482970    -3.527207    0.691037    -6.991139    6.788169    3.150115    8.419360    -11.398310    3.363233    -5.674561    -1.012458    -7.406602    -1.307322    1.395186    2.309715    
2.230164    82.444588    -68.680435    4.457786    2.325414    -1.715233    -3.854782    -13.971071    0.100009    -1.754831    2.957642    0.617740    2.955745    34.862659    -2.264304    0.291853    -15.225064    -1.724948    19.033413    2.037367    6.766949    -36.101368    3.890450    -8.617265    5.752097    -7.867779    -0.368201    -28.533154    -5.615898    -8.826964    -15.859670    1.641837    11.461476    19.332464    0.468937    7.464155    -1.267595    -7.001837    -0.099056    6.839212    -6.091305    15.265038    -6.336726    2.987440    -2.548877    -1.070743    3.606813    -3.811491    7.927304    -5.428374    -0.470044    -0.576409    -3.709219    0.825691    -6.986126    6.779816    3.148613    8.416975    -11.400460    3.355792    -5.685554    -1.001540    -7.391470    -1.285633    1.416188    2.270904    
2.222616    82.445671    -68.691261    4.461668    2.323509    -1.709365    -3.861071    -13.966249    0.103238    -1.762628    2.960943    0.621904    2.945419    34.800083    -2.233849    0.303344    -15.122975    -1.694323    19.028574    2.022624    6.753386    -36.125725    3.853620    -8.610234    5.746252    -7.870883    -0.375429    -28.479481    -5.626816    -8.812241    -15.858122    1.648822    11.461480    19.330488    0.477376    7.463118    -1.272329    -7.005656    -0.100863    6.841546    -6.095594    15.252770    -6.333301    2.984104    -2.571881    -1.069019    3.600916    -3.819208    7.904219    -5.423132    -0.433959    -0.532861    -3.680788    0.763171    -6.988256    6.775264    3.148329    8.428325    -11.400230    3.340218    -5.729367    -0.982040    -7.373818    -1.289847    1.416697    2.278333    
2.215291    82.446114    -68.701767    4.469478    2.319122    -1.703730    -3.873269    -13.960625    0.103377    -1.766002    2.968273    0.623489    2.962486    34.862270    -2.286697    0.304720    -15.204059    -1.743584    19.000189    2.049013    6.750453    -36.105354    3.842866    -8.625773    5.732716    -7.863514    -0.386296    -28.504187    -5.623593    -8.785897    -15.858706    1.643497    11.461002    19.333462    0.458472    7.465830    -1.268010    -6.984779    -0.103341    6.829453    -6.076279    15.253367    -6.337898    2.985656    -2.568756    -1.062570    3.589560    -3.818494    8.152163    -5.461473    -0.428650    -0.487671    -3.552390    0.697876    -6.990712    6.775171    3.117355    8.421678    -11.404889    3.386447    -5.676323    -0.982902    -7.385316    -1.301139    1.401080    2.298651    
2.204918    82.446907    -68.713440    4.475089    2.323007    -1.701680    -3.882839    -13.963406    0.107337    -1.783391    2.972434    0.629322    3.005930    34.847610    -2.306782    0.277319    -15.167369    -1.764310    19.012693    2.040486    6.736635    -36.128761    3.830569    -8.621324    5.739792    -7.881104    -0.385660    -28.511858    -5.643535    -8.774589    -15.838604    1.655963    11.467575    19.319738    0.468416    7.459847    -1.259352    -6.986260    -0.098670    6.806359    -6.081858    15.235591    -6.331849    2.975112    -2.568638    -1.071962    3.586793    -3.822672    8.149974    -5.464148    -0.406653    -0.472787    -3.544275    0.676542    -6.988864    6.766362    3.104067    8.432432    -11.404808    3.367696    -5.727757    -0.969047    -7.362992    -1.298579    1.421961    2.293628    
2.196971    82.447525    -68.722572    4.478632    2.313739    -1.703702    -3.885626    -13.952511    0.117852    -1.800821    2.979385    0.640360    3.020253    34.834988    -2.321589    0.294023    -15.146941    -1.772987    19.018208    2.036929    6.732752    -36.142357    3.812416    -8.637462    5.731367    -7.884498    -0.382481    -28.510368    -5.648565    -8.769393    -15.832592    1.650335    11.455218    19.321384    0.503282    7.465508    -1.252047    -6.993913    -0.106642    6.810345    -6.088598    15.243573    -6.339286    2.984309    -2.540528    -1.052161    3.572937    -3.823434    7.905246    -5.421947    -0.441113    -0.535014    -3.655438    0.766130    -6.990999    6.772243    3.134186    8.431469    -11.424708    3.326858    -5.679334    -0.968038    -7.352734    -1.312151    1.443238    2.317079    
2.187768    82.448105    -68.734138    4.483765    2.317027    -1.704161    -3.896012    -13.951336    0.121546    -1.802317    2.981743    0.645314    2.986964    34.758137    -2.273420    0.318594    -15.030676    -1.725257    19.011776    2.028008    6.727692    -36.147835    3.826016    -8.630873    5.722487    -7.912385    -0.389087    -28.526840    -5.673096    -8.776655    -15.830008    1.642694    11.451728    19.315968    0.530042    7.470776    -1.249550    -7.005285    -0.108433    6.816264    -6.099492    15.239066    -6.334448    2.976267    -2.570317    -1.055047    3.567280    -3.836012    7.809880    -5.406847    -0.411092    -0.571458    -3.644834    0.818261    -6.991041    6.761740    3.130098    8.434149    -11.425191    3.346560    -5.698656    -0.945051    -7.353683    -1.294872    1.390447    2.287836    
2.175766    82.449760    -68.744431    4.482871    2.316331    -1.709259    -3.898164    -13.943879    0.131272    -1.819183    2.972059    0.655386    3.053561    34.833347    -2.334446    0.283883    -15.121317    -1.783045    19.030363    2.029063    6.716880    -36.175709    3.806309    -8.635155    5.723927    -7.915115    -0.386971    -28.545788    -5.673636    -8.779623    -15.814924    1.654915    11.447969    19.316441    0.532138    7.484665    -1.252543    -6.998948    -0.125287    6.837739    -6.090769    15.233794    -6.329351    2.975243    -2.550509    -1.055374    3.558557    -3.786038    7.891683    -5.419268    -0.467389    -0.531097    -3.635211    0.760423    -6.984423    6.757946    3.159702    8.431972    -11.435373    3.327706    -5.735045    -0.906467    -7.324358    -1.258568    1.371135    2.224154    
2.166232    82.450066    -68.754379    4.488113    2.310871    -1.714998    -3.919196    -13.929281    0.135527    -1.801448    2.958709    0.661096    2.997098    34.847523    -2.329123    0.352699    -15.116527    -1.768972    19.010597    2.033010    6.698709    -36.181263    3.824781    -8.610563    5.731061    -7.966014    -0.416064    -28.581472    -5.720829    -8.777954    -15.817550    1.656584    11.451046    19.314632    0.519132    7.492139    -1.245325    -7.000396    -0.132972    6.818727    -6.094194    15.244523    -6.322262    2.980071    -2.584998    -1.091520    3.550171    -3.684143    7.905079    -5.430707    -0.513890    -0.537141    -3.599275    0.768899    -6.983520    6.755354    3.146122    8.436621    -11.436028    3.330012    -5.670396    -0.936970    -7.361421    -1.324617    1.429295    2.339429    
